<svg width="19" height="18" viewBox="0 0 19 18" fill="none" xmlns="http://www.w3.org/2000/svg">
<path fill-rule="evenodd" clip-rule="evenodd" d="M9.49999 1.5C5.35788 1.5 2 4.85784 2 8.99999C2 13.1421 5.35788 16.5 9.49999 16.5C13.6422 16.5 17 13.1421 17 8.99999C17 4.85784 13.6422 1.5 9.49999 1.5ZM9.49999 15C6.19161 15 3.50001 12.3084 3.50001 8.99999C3.50001 5.69157 6.19157 3.00001 9.49999 3.00001C12.8084 3.00001 15.5 5.69157 15.5 8.99999C15.5 12.3084 12.8084 15 9.49999 15ZM10.4392 6C10.4392 6.5438 10.0432 6.93751 9.50762 6.93751C8.95036 6.93751 8.56413 6.54376 8.56413 5.98959C8.56413 5.45698 8.9608 5.06252 9.50762 5.06252C10.0432 5.06252 10.4392 5.45698 10.4392 6ZM8.75165 8.25H10.2516V12.75H8.75165V8.25Z" fill="white"/>
</svg>
