<svg width="19" height="18" viewBox="0 0 19 18" fill="none" xmlns="http://www.w3.org/2000/svg">
<path d="M9.3425 9L5.75 6.64125M16.25 4.464L5.75 11.3588M6.5 12.8115C6.5 11.8095 5.66 10.9965 4.625 10.9965C3.59 10.9965 2.75 11.8087 2.75 12.8107C2.75 13.8127 3.59 14.625 4.625 14.625C5.66 14.625 6.5 13.8127 6.5 12.81M16.25 13.536L11.7005 10.5487M6.5 5.19C6.5 6.19275 5.66 7.005 4.625 7.005C3.59 7.005 2.75 6.192 2.75 5.18925C2.75 4.1865 3.59 3.375 4.625 3.375C5.66 3.375 6.5 4.18725 6.5 5.19Z" stroke="white" stroke-width="1.5" stroke-linecap="round" stroke-linejoin="round"/>
</svg>
