<svg width="19" height="18" viewBox="0 0 19 18" fill="none" xmlns="http://www.w3.org/2000/svg">
<path d="M3.68 9.18751C3.38346 8.89294 3.1485 8.54229 2.98884 8.15599C2.82917 7.7697 2.74798 7.3555 2.75 6.93751C2.75 6.09214 3.08582 5.28138 3.6836 4.68361C4.28137 4.08584 5.09212 3.75001 5.9375 3.75001C7.1225 3.75001 8.1575 4.39501 8.705 5.35501H9.545C9.82334 4.86681 10.2261 4.46108 10.7122 4.17915C11.1984 3.89721 11.7505 3.74914 12.3125 3.75001C13.1579 3.75001 13.9686 4.08584 14.5664 4.68361C15.1642 5.28138 15.5 6.09214 15.5 6.93751C15.5 7.81501 15.125 8.62501 14.57 9.18751L9.125 14.625L3.68 9.18751ZM15.095 9.72001C15.8075 9.00001 16.25 8.02501 16.25 6.93751C16.25 5.89322 15.8352 4.8917 15.0967 4.15328C14.3583 3.41486 13.3568 3.00001 12.3125 3.00001C11 3.00001 9.8375 3.63751 9.125 4.62751C8.76133 4.12239 8.28245 3.71125 7.72811 3.42821C7.17376 3.14517 6.55992 2.99838 5.9375 3.00001C4.89321 3.00001 3.89169 3.41486 3.15327 4.15328C2.41484 4.8917 2 5.89322 2 6.93751C2 8.02501 2.4425 9.00001 3.155 9.72001L9.125 15.69L15.095 9.72001Z" fill="white"/>
</svg>
