<svg width="19" height="18" viewBox="0 0 19 18" fill="none" xmlns="http://www.w3.org/2000/svg">
<path d="M9.5 2.25C8.60489 2.25 7.74645 2.60558 7.11351 3.23851C6.48058 3.87145 6.125 4.72989 6.125 5.625C6.125 5.77418 6.18426 5.91726 6.28975 6.02275C6.39524 6.12824 6.53832 6.1875 6.6875 6.1875C6.83668 6.1875 6.97976 6.12824 7.08525 6.02275C7.19074 5.91726 7.25 5.77418 7.25 5.625C7.25 5.02826 7.48705 4.45597 7.90901 4.03401C8.33097 3.61205 8.90326 3.375 9.5 3.375C10.0967 3.375 10.669 3.61205 11.091 4.03401C11.5129 4.45597 11.75 5.02826 11.75 5.625C11.75 6.3855 11.5925 6.84 11.3956 7.155C11.1898 7.48463 10.9141 7.71075 10.5552 7.99875L10.5328 8.01562C10.193 8.28788 9.77675 8.61975 9.46287 9.12375C9.13212 9.6525 8.9375 10.323 8.9375 11.25V11.8125C8.9375 11.9617 8.99676 12.1048 9.10225 12.2102C9.20774 12.3157 9.35082 12.375 9.5 12.375C9.64918 12.375 9.79226 12.3157 9.89775 12.2102C10.0032 12.1048 10.0625 11.9617 10.0625 11.8125V11.25C10.0625 10.4895 10.22 10.035 10.4169 9.72C10.6227 9.39038 10.8984 9.16425 11.2573 8.87625L11.2797 8.85938C11.6195 8.58712 12.0357 8.25525 12.3496 7.75125C12.6804 7.2225 12.875 6.552 12.875 5.625C12.875 4.72989 12.5194 3.87145 11.8865 3.23851C11.2536 2.60558 10.3951 2.25 9.5 2.25ZM9.5 15.75C9.72378 15.75 9.93839 15.6611 10.0966 15.5029C10.2549 15.3446 10.3438 15.13 10.3438 14.9062C10.3438 14.6825 10.2549 14.4679 10.0966 14.3096C9.93839 14.1514 9.72378 14.0625 9.5 14.0625C9.27622 14.0625 9.06161 14.1514 8.90338 14.3096C8.74514 14.4679 8.65625 14.6825 8.65625 14.9062C8.65625 15.13 8.74514 15.3446 8.90338 15.5029C9.06161 15.6611 9.27622 15.75 9.5 15.75Z" fill="black"/>
</svg>
