<svg width="149" height="145" viewBox="0 0 149 145" fill="none" xmlns="http://www.w3.org/2000/svg">
<g clip-path="url(#clip0_117_199)">
<path d="M28.1348 63.2102L36.9642 105.736C38.823 114.689 47.3964 122.247 58.5874 119.924L107.828 109.7C119.019 107.377 123.874 97.0298 122.016 88.0772L113.186 45.5514L28.1348 63.2102Z" fill="white" stroke="#782AE7" stroke-width="5"/>
<path d="M72 28.5L43.5 34.5L61.5 55.5L90.5 49.5L72 28.5Z" fill="white" stroke="black"/>
<path d="M43.1667 34.4077C41.5997 34.7331 52.1195 32.5489 40.9285 34.8724C29.7376 37.196 24.8818 47.5429 28.1347 63.2102L62.2443 56.1282M43.1667 34.4077L62.2443 56.1282ZM43.1667 34.4077C50.0643 32.9756 61.601 30.5803 71.5075 28.5235ZM62.2443 56.1282L91.5131 50.0513ZM71.5075 28.5235C78.7905 27.0113 78.9776 26.9725 90.1691 24.6488C101.36 22.3253 109.933 29.884 113.186 45.5514L91.5131 50.0513M71.5075 28.5235L91.5131 50.0513Z" fill="white"/>
<path d="M43.1667 34.4077C41.5997 34.7331 52.1195 32.5489 40.9285 34.8724C29.7376 37.196 24.8818 47.5429 28.1347 63.2102L62.2443 56.1282M43.1667 34.4077L62.2443 56.1282M43.1667 34.4077C50.0643 32.9756 61.601 30.5803 71.5075 28.5235M62.2443 56.1282L91.5131 50.0513M71.5075 28.5235C78.7905 27.0113 78.9776 26.9725 90.1691 24.6488C101.36 22.3253 109.933 29.884 113.186 45.5514L91.5131 50.0513M71.5075 28.5235L91.5131 50.0513" stroke="#782AE7" stroke-width="5"/>
<path d="M67.3699 94.7526L63.6523 76.8473C63.139 74.375 64.4964 69.6679 69.4375 70.9767C74.3786 72.2855 79.0581 74.5825 86.9636 76.6766C94.8692 78.7709 93.9589 80.8912 88.8224 85.6292C85.5567 88.6419 84.8108 88.7968 75.0139 97.8348C70.7635 101.756 67.8346 96.9908 67.3699 94.7526Z" stroke="#782AE7" stroke-width="5"/>
</g>
<defs>
<clipPath id="clip0_117_199">
<rect width="126.957" height="120.275" fill="white" transform="translate(0 26.3091) rotate(-11.7294)"/>
</clipPath>
</defs>
</svg>
