<svg width="19" height="18" viewBox="0 0 19 18" fill="none" xmlns="http://www.w3.org/2000/svg">
<path d="M3 6.26318V12.7632C3 14.1316 4.02632 15.5 5.73684 15.5H13.2632C14.9737 15.5 16 14.1316 16 12.7632V6.26318H3Z" stroke="white"/>
<path d="M6.07895 2.5C5.83944 2.5 7.44737 2.5 5.73684 2.5C4.02632 2.5 3 3.86842 3 6.26316L8.2136 6.26316M6.07895 2.5L8.2136 6.26316M6.07895 2.5C7.13323 2.5 8.8966 2.5 10.4108 2.5M8.2136 6.26316L12.6873 6.26316M10.4108 2.5C11.524 2.5 11.5526 2.5 13.2632 2.5C14.9737 2.5 16 3.86842 16 6.26316H12.6873M10.4108 2.5L12.6873 6.26316" stroke="white"/>
<path d="M7.78955 12.0788V9.34199C7.78955 8.96411 8.13166 8.31567 8.81587 8.65778C9.50008 8.99989 10.1159 9.47884 11.2106 10.0262C12.3053 10.5736 12.1074 10.8566 11.2106 11.3946C10.6404 11.7367 10.5264 11.7367 8.81587 12.763C8.07374 13.2083 7.78955 12.4209 7.78955 12.0788Z" stroke="white"/>
</svg>
