<svg width="304" height="303" viewBox="0 0 304 303" fill="none" xmlns="http://www.w3.org/2000/svg">
<g clip-path="url(#clip0_3_42)">
<path d="M299.025 284C298.941 284.053 298.855 284.102 298.77 284.152C298.855 284.102 298.941 284.053 299.025 284Z" fill="black"/>
<path d="M297.3 227.928L164.137 8.811C161.538 4.53801 157.002 1.98511 152 1.98511C146.998 1.98511 142.462 4.53801 139.863 8.81041L6.70026 227.928C2.64526 234.6 0.5 242.259 0.5 250.069V250.149L48.3894 237.788L47.8562 230.323C47.8331 230.014 47.8426 229.704 47.8793 229.398L52.6136 191.516C52.9095 189.148 54.9252 187.368 57.3113 187.368H85.7176C88.1031 187.368 90.1194 189.148 90.4153 191.516L94.704 225.834L116.756 220.142L126.131 101.363L128.342 73.3468C128.449 71.9919 129.133 70.7477 130.224 69.9338L143.479 59.9916C148.491 56.2276 155.509 56.2276 160.521 59.9916L173.776 69.9338C174.868 70.7477 175.552 71.9919 175.658 73.3468L177.87 101.363L187.246 220.142L209.296 225.833L213.585 191.516C213.881 189.148 215.896 187.368 218.282 187.368H246.689C249.074 187.368 251.09 189.148 251.386 191.516L256.121 229.398C256.158 229.704 256.167 230.013 256.144 230.323L255.611 237.788L303.5 250.149V250.069C303.5 242.259 301.355 234.6 297.3 227.928Z" fill="black"/>
<path d="M292.751 285.347C292.739 285.345 292.728 285.344 292.716 285.342C292.728 285.344 292.74 285.346 292.751 285.347Z" fill="black"/>
<path d="M208.826 230.323C208.803 230.014 208.812 229.704 208.849 229.398L209.295 225.834L187.244 220.143L189.861 253.288C189.962 254.606 189.514 255.905 188.617 256.876C187.72 257.848 186.462 258.398 185.14 258.398H184.558L211.307 265.076L208.826 230.323Z" fill="#393838"/>
<path d="M252.918 275.463L291.701 285.144C292.037 285.231 292.377 285.294 292.716 285.342C292.728 285.344 292.739 285.346 292.751 285.347C293.097 285.395 293.442 285.422 293.787 285.432C293.805 285.432 293.822 285.433 293.839 285.434C293.909 285.435 293.979 285.44 294.049 285.44C294.329 285.44 294.608 285.425 294.886 285.4C294.888 285.4 294.889 285.399 294.89 285.399C295.206 285.371 295.52 285.322 295.831 285.261C295.909 285.245 295.986 285.229 296.063 285.212C296.324 285.155 296.582 285.086 296.837 285.006C296.896 284.988 296.956 284.973 297.016 284.953C297.313 284.854 297.605 284.738 297.893 284.609C297.973 284.572 298.052 284.53 298.132 284.492C298.348 284.387 298.56 284.274 298.77 284.153C298.856 284.103 298.941 284.053 299.025 284.001C299.299 283.83 299.569 283.648 299.828 283.447C302.163 281.639 303.499 278.911 303.499 275.961V250.15L255.609 237.789L252.918 275.463Z" fill="#393838"/>
<path d="M115.383 256.876C114.485 255.904 114.037 254.605 114.139 253.287L116.755 220.142L94.7035 225.834L95.1491 229.398C95.1864 229.704 95.1953 230.013 95.1722 230.323L92.6902 265.075L119.442 258.397H118.859C117.537 258.397 116.28 257.847 115.383 256.876Z" fill="#393838"/>
<path d="M0.5 250.149V275.96C0.5 278.91 1.83628 281.639 4.17092 283.446C5.85872 284.755 7.88799 285.439 9.95041 285.439C10.7316 285.439 11.5222 285.342 12.2992 285.143L51.0803 275.462L48.39 237.788L0.5 250.149Z" fill="#393838"/>
<path d="M188.617 256.876C189.515 255.904 189.963 254.605 189.861 253.287L187.245 220.142L177.869 101.363L157.804 86.3114C157.46 86.0533 157.101 85.8284 156.734 85.6224V85.7526C153.775 84.0698 150.224 84.0704 147.265 85.7526V85.6218C146.898 85.8284 146.538 86.0527 146.194 86.3108L126.13 101.362L116.754 220.141L114.138 253.286C114.036 254.605 114.485 255.904 115.382 256.875C116.279 257.846 117.537 258.396 118.859 258.396H119.441H121.814H147.266V192.103C147.266 189.485 149.383 187.367 152 187.367C154.617 187.367 156.734 189.485 156.734 192.103V258.396H182.185H184.558H185.141C186.463 258.397 187.72 257.847 188.617 256.876Z" fill="#262626"/>
<path d="M147.266 85.6225V57.9946C150.325 56.9214 153.675 56.9214 156.734 57.9946V85.6225C157.101 85.8291 157.461 86.0534 157.805 86.3115L177.87 101.363L175.658 73.3469C175.552 71.992 174.868 70.7478 173.776 69.9339L160.521 59.9917C155.509 56.2277 148.491 56.2277 143.479 59.9917L130.224 69.9339C129.133 70.7478 128.449 71.992 128.342 73.3469L126.131 101.363L146.196 86.3115C146.539 86.054 146.899 85.8291 147.266 85.6225Z" fill="#7C7A7A"/>
<path d="M255.609 237.788L256.143 230.323C256.166 230.014 256.156 229.704 256.119 229.398C256.143 229.592 256.134 229.789 256.134 229.986H208.835C208.835 229.789 208.826 229.592 208.85 229.398C208.812 229.704 208.804 230.013 208.827 230.323L211.309 265.075L213.561 296.617C213.737 299.095 215.799 301.014 218.282 301.014H246.688C249.171 301.014 251.233 299.095 251.409 296.617L252.92 275.462L255.609 237.788Z" fill="#262626"/>
<path d="M152 187.368C149.383 187.368 147.266 189.486 147.266 192.104V258.397V296.28C147.266 298.897 149.383 301.015 152 301.015C154.617 301.015 156.734 298.897 156.734 296.28V258.397V192.104C156.734 189.486 154.617 187.368 152 187.368Z" fill="#7C7A7A"/>
<path d="M208.834 229.986H256.134C256.134 229.789 256.143 229.592 256.119 229.398L251.385 191.516C251.089 189.148 249.073 187.368 246.687 187.368H218.281C215.895 187.368 213.879 189.148 213.583 191.516L209.294 225.833L208.849 229.398C208.826 229.592 208.834 229.789 208.834 229.986Z" fill="#7C7A7A"/>
<path d="M95.149 229.398C95.1727 229.592 95.1638 229.789 95.1638 229.986H47.8645C47.8645 229.789 47.8556 229.592 47.8793 229.398C47.842 229.704 47.8331 230.013 47.8562 230.323L48.3894 237.788L51.0797 275.463L52.5906 296.617C52.7663 299.096 54.8281 301.015 57.3113 301.015H85.7176C88.2002 301.015 90.2626 299.096 90.4383 296.617L92.6907 265.075L95.1727 230.323C95.1952 230.013 95.1863 229.704 95.149 229.398Z" fill="#262626"/>
<path d="M47.8644 229.986H95.1638C95.1638 229.789 95.1726 229.592 95.149 229.398L94.7034 225.834L90.4146 191.516C90.1187 189.148 88.103 187.368 85.7169 187.368H57.3107C54.9251 187.368 52.9089 189.148 52.613 191.516L47.8786 229.398C47.8561 229.592 47.8644 229.789 47.8644 229.986Z" fill="#7C7A7A"/>
<path d="M147.266 57.9943V85.6223V85.7531C150.225 84.0703 153.775 84.0703 156.734 85.7531V85.6229V57.9943C153.675 56.9218 150.325 56.9218 147.266 57.9943Z" fill="#393838"/>
</g>
<defs>
<clipPath id="clip0_3_42">
<rect width="303" height="303" fill="white" transform="translate(0.5)"/>
</clipPath>
</defs>
</svg>
