<svg width="19" height="18" viewBox="0 0 19 18" fill="none" xmlns="http://www.w3.org/2000/svg">
<path d="M15.125 3.375V5.625H3.875V3.375H15.125ZM15.125 2.25H3.875C3.57663 2.25 3.29048 2.36853 3.0795 2.5795C2.86853 2.79048 2.75 3.07663 2.75 3.375V5.625C2.75 5.92337 2.86853 6.20952 3.0795 6.4205C3.29048 6.63147 3.57663 6.75 3.875 6.75H15.125C15.4234 6.75 15.7095 6.63147 15.9205 6.4205C16.1315 6.20952 16.25 5.92337 16.25 5.625V3.375C16.25 3.07663 16.1315 2.79048 15.9205 2.5795C15.7095 2.36853 15.4234 2.25 15.125 2.25ZM6.125 9V14.625H3.875V9H6.125ZM6.125 7.875H3.875C3.57663 7.875 3.29048 7.99353 3.0795 8.2045C2.86853 8.41548 2.75 8.70163 2.75 9V14.625C2.75 14.9234 2.86853 15.2095 3.0795 15.4205C3.29048 15.6315 3.57663 15.75 3.875 15.75H6.125C6.42337 15.75 6.70952 15.6315 6.9205 15.4205C7.13147 15.2095 7.25 14.9234 7.25 14.625V9C7.25 8.70163 7.13147 8.41548 6.9205 8.2045C6.70952 7.99353 6.42337 7.875 6.125 7.875ZM15.125 9V14.625H9.5V9H15.125ZM15.125 7.875H9.5C9.20163 7.875 8.91548 7.99353 8.7045 8.2045C8.49353 8.41548 8.375 8.70163 8.375 9V14.625C8.375 14.9234 8.49353 15.2095 8.7045 15.4205C8.91548 15.6315 9.20163 15.75 9.5 15.75H15.125C15.4234 15.75 15.7095 15.6315 15.9205 15.4205C16.1315 15.2095 16.25 14.9234 16.25 14.625V9C16.25 8.70163 16.1315 8.41548 15.9205 8.2045C15.7095 7.99353 15.4234 7.875 15.125 7.875Z" fill="black"/>
</svg>
